# xmcd CD database file
#
# Track frame offsets:
#	150
#	12942
#	25657
#	37985
#	49460
#	61942
#	75682
#	88377
#	100215
#	112085
#	123550
#	134530
#	147387
#	161615
#	172960
#	184955
#	198227
#	208542
#	220227
#	231907
#
# Disc length: 3229 seconds
#
# Revision: 0
# Processed by: cddbd v1.5.1PL0 Copyright (c) Steve Scherf et al.
# Submitted via: CDex 1.51
#
DISCID=240c9b14
DTITLE=Ray Charles - Rockin' chair BLUES
DYEAR=2000
DGENRE=Blues
TTITLE0=You'll Never Miss The Water
TTITLE1=Blues Before Sunrise
TTITLE2=Honey, Honey
TTITLE3=She's on The Ball
TTITLE4=Rockin' Chair Blues
TTITLE5=This Love Mine
TTITLE6=Can Anyone Ask For More?
TTITLE7=If I Give You My Love
TTITLE8=Can't You See Darling
TTITLE9=Let's Have a Ball
TTITLE10=A Sentimental Blues
TTITLE11=Don't Put All Your Dreams In One Basket
TTITLE12=Walkin' And Talkin'
TTITLE13=Confession Blues
TTITLE14=I Love You, I Love You (I Will Never Let You Go)
TTITLE15=Alone In This City
TTITLE16=Goin Down Slow
TTITLE17=What Have I Done
TTITLE18=How Long
TTITLE19=Ain't That Fine
EXTD=YEAR: 2000
EXTT0=
EXTT1=
EXTT2=
EXTT3=
EXTT4=
EXTT5=
EXTT6=
EXTT7=
EXTT8=
EXTT9=
EXTT10=
EXTT11=
EXTT12=
EXTT13=
EXTT14=
EXTT15=
EXTT16=
EXTT17=
EXTT18=
EXTT19=
PLAYORDER=
